<?xml version="1.0" standalone="no"?>
<!DOCTYPE svg PUBLIC "-//W3C//DTD SVG 20010904//EN"
 "http://www.w3.org/TR/2001/REC-SVG-20010904/DTD/svg10.dtd">
<svg version="1.0" xmlns="http://www.w3.org/2000/svg"
 width="512.000000pt" height="512.000000pt" viewBox="0 0 512.000000 512.000000"
 preserveAspectRatio="xMidYMid meet">
<metadata>
Created by potrace 1.11, written by Peter Selinger 2001-2013
</metadata>
<g transform="translate(0.000000,512.000000) scale(0.100000,-0.100000)"
fill="#000000" stroke="none">
<path d="M2360 4244 c-465 -16 -780 -32 -1004 -50 l-79 -7 -77 -161 c-77 -159
-259 -581 -295 -683 -10 -29 -16 -56 -12 -60 11 -10 321 13 478 36 423 62 676
81 1078 81 563 0 1156 -26 1466 -65 105 -13 220 -26 257 -30 l68 -7 -29 69
c-46 109 -89 202 -251 531 l-153 311 -71 6 c-229 19 -419 26 -826 29 -250 2
-498 2 -550 0z"/>
<path d="M4724 2798 c40 -402 27 -627 -54 -949 -37 -148 -55 -193 -90 -223
-16 -13 -35 -39 -43 -57 -41 -97 -136 -138 -415 -179 -123 -18 -151 -25 -207
-56 -36 -20 -87 -43 -113 -50 -71 -22 -287 -42 -587 -55 -301 -13 -1257 -5
-1515 12 -257 17 -431 52 -510 103 -29 19 -59 25 -175 35 -266 23 -355 55
-407 148 -16 29 -44 61 -62 73 -35 21 -54 70 -91 235 -49 216 -57 302 -62 639
-6 365 -4 359 -63 231 -45 -98 -63 -194 -61 -335 0 -69 4 -152 8 -185 5 -33 4
-139 0 -235 -11 -235 -2 -685 18 -845 17 -145 54 -271 89 -304 36 -34 80 -41
261 -41 151 0 174 2 202 20 38 23 49 41 58 100 11 73 13 77 53 85 20 3 82 29
137 56 55 27 136 59 180 72 l80 22 1150 3 c1028 3 1161 1 1250 -13 107 -18
255 -62 345 -102 30 -14 66 -26 80 -27 23 -1 26 -7 40 -88 8 -48 20 -92 26
-99 8 -7 82 -10 240 -7 221 3 230 4 262 26 53 38 61 67 78 265 18 212 21 700
6 857 -7 66 -7 133 -2 180 14 113 11 365 -4 450 -14 78 -60 213 -90 265 l-17
30 5 -57z"/>
<path d="M2005 2700 c-121 -5 -316 -16 -433 -24 -210 -16 -276 -29 -288 -59
-8 -21 40 -140 82 -202 83 -125 180 -192 320 -219 222 -44 648 -71 979 -62
625 17 803 43 931 141 37 28 113 132 155 211 37 72 38 117 1 153 -30 31 -18
29 -412 51 -248 14 -1073 20 -1335 10z"/>
</g>
</svg>
